<?xml version="1.0" encoding="UTF-8"?>
<svg width="42px" height="42px" viewBox="0 0 42 42" version="1.1" xmlns="http://www.w3.org/2000/svg" xmlns:xlink="http://www.w3.org/1999/xlink">
    <!-- Generator: Sketch 52.2 (67145) - http://www.bohemiancoding.com/sketch -->
    <title>11_置顶</title>
    <desc>Created with Sketch.</desc>
    <g id="自营h5/首页" stroke="none" stroke-width="1" fill="none" fill-rule="evenodd">
        <g id="首页布局优化x4" transform="translate(-322.000000, -1407.000000)">
            <g id="11_置顶" transform="translate(323.000000, 1408.000000)">
                <circle id="Oval" stroke="#979797" stroke-width="0.5" fill-opacity="0.9" fill="#FFFFFF" cx="20" cy="20" r="20"></circle>
                <g id="Group-16" transform="translate(10.000000, 10.000000)" fill="#000000">
                    <g id="返回顶部" transform="translate(4.000000, 0.000000)">
                        <path d="M5.96382053,0.967098422 L11.2682611,5.88356027 C11.4364679,6.03947215 11.7082541,6.03860338 11.8753126,5.88161981 C12.0423711,5.72463624 12.0414402,5.47098436 11.8732334,5.31507246 L6.2642946,0.116307152 C6.09607802,-0.039547894 5.82434156,-0.0386511676 5.65731015,0.118310193 L0.124697121,5.3170755 C0.0166292129,5.41862607 -0.0251798233,5.5662694 0.0150190721,5.70438968 C0.0552179676,5.84250996 0.171317626,5.95012343 0.319584428,5.98669314 C0.46785123,6.02326285 0.62575992,5.98323299 0.733827821,5.88168242 L5.96382053,0.967098422 Z" id="Path"></path>
                    </g>
                    <path d="M4.38,11.26 L9.44,11.26 L9.44,11.96 L7.23,11.96 C7.2,12.32 7.16,12.67 7.1,13.01 L9.11,13.01 L9.11,17.75 L8.4,17.75 L8.4,13.68 L5.37,13.68 L5.37,17.77 L4.67,17.77 L4.67,13.01 L6.37,13.01 C6.43,12.67 6.47,12.32 6.5,11.96 L4.38,11.96 L4.38,11.26 Z M7.7,17.81 C8.42,18.37 9.03,18.92 9.52,19.48 L9,20.01 C8.56,19.47 7.97,18.89 7.21,18.27 L7.7,17.81 Z M6.49,14.27 L7.2,14.27 L7.2,16.05 C7.17,17.11 6.91,17.96 6.41,18.58 C5.92,19.16 5.12,19.62 4.01,19.96 L3.62,19.35 C4.69,19.04 5.43,18.63 5.85,18.12 C6.25,17.59 6.46,16.9 6.49,16.05 L6.49,14.27 Z M1.97,19.87 L0.84,19.87 L0.68,19.19 C1.04,19.21 1.39,19.23 1.72,19.23 C1.96,19.23 2.09,19.08 2.09,18.8 L2.09,11.96 L0.55,11.96 L0.55,11.26 L4.03,11.26 L4.03,11.96 L2.83,11.96 L2.83,18.98 C2.83,19.57 2.54,19.87 1.97,19.87 Z M11.88,12.87 C12.12,13.33 12.35,13.89 12.55,14.55 L13.6,14.55 C13.89,14 14.14,13.41 14.34,12.79 L15.01,13.02 C14.8,13.59 14.57,14.1 14.31,14.55 L15.52,14.55 L15.52,15.25 L10.51,15.25 L10.51,14.55 L11.86,14.55 C11.68,14.03 11.47,13.55 11.22,13.11 L11.88,12.87 Z M15.98,11.25 L19.26,11.25 L19.26,11.79 C18.95,12.84 18.62,13.82 18.26,14.72 C19.01,15.66 19.39,16.44 19.4,17.04 C19.4,17.66 19.27,18.09 19.01,18.33 C18.73,18.57 18.18,18.7 17.36,18.7 L17.13,17.94 C17.41,17.96 17.64,17.98 17.83,17.98 C18.19,17.96 18.42,17.89 18.52,17.77 C18.62,17.64 18.67,17.4 18.68,17.04 C18.67,16.45 18.27,15.68 17.49,14.72 C17.82,13.93 18.15,12.99 18.47,11.91 L16.68,11.91 L16.68,19.98 L15.98,19.98 L15.98,11.25 Z M10.7,11.8 L12.71,11.8 C12.59,11.47 12.47,11.17 12.34,10.9 L13.08,10.77 C13.19,11.07 13.3,11.42 13.41,11.8 L15.45,11.8 L15.45,12.5 L10.7,12.5 L10.7,11.8 Z M15.06,16.16 L15.06,19.93 L14.35,19.93 L14.35,19.37 L11.79,19.37 L11.79,19.93 L11.08,19.93 L11.08,16.16 L15.06,16.16 Z M11.79,18.69 L14.35,18.69 L14.35,16.84 L11.79,16.84 L11.79,18.69 Z" id="顶部"></path>
                </g>
            </g>
        </g>
    </g>
</svg>